<?xml version="1.0" encoding="UTF-8" standalone="no"?>
<!-- Created with Inkscape (http://www.inkscape.org/) -->

<svg
   width="50.040375mm"
   height="71.074837mm"
   viewBox="0 0 50.040375 71.074837"
   version="1.1"
   id="svg5"
   xml:space="preserve"
   inkscape:version="1.2.2 (b0a8486541, 2022-12-01)"
   sodipodi:docname="bionico.svg"
   xmlns:inkscape="http://www.inkscape.org/namespaces/inkscape"
   xmlns:sodipodi="http://sodipodi.sourceforge.net/DTD/sodipodi-0.dtd"
   xmlns="http://www.w3.org/2000/svg"
   xmlns:svg="http://www.w3.org/2000/svg"><sodipodi:namedview
     id="namedview7"
     pagecolor="#ffffff"
     bordercolor="#666666"
     borderopacity="1.0"
     inkscape:showpageshadow="2"
     inkscape:pageopacity="0.0"
     inkscape:pagecheckerboard="0"
     inkscape:deskcolor="#d1d1d1"
     inkscape:document-units="mm"
     showgrid="false"
     inkscape:zoom="3.3638608"
     inkscape:cx="223.55265"
     inkscape:cy="197.24359"
     inkscape:window-width="3770"
     inkscape:window-height="2083"
     inkscape:window-x="70"
     inkscape:window-y="40"
     inkscape:window-maximized="1"
     inkscape:current-layer="layer1" /><defs
     id="defs2" /><g
     inkscape:label="Calque 1"
     inkscape:groupmode="layer"
     id="layer1"
     transform="translate(-30.432348,-44.066646)"><path
       style="fill:#fe693d;stroke-width:0.264583"
       d="m 37.723198,114.14929 c 0.190754,-0.5457 0.602333,-1.88516 0.914619,-2.97656 0.312285,-1.09141 0.692707,-2.34156 0.84538,-2.77813 0.152673,-0.43656 0.450266,-1.44859 0.661318,-2.24895 0.211051,-0.80037 0.499776,-1.69334 0.64161,-1.98438 0.820984,-1.68465 1.742184,-6.021506 2.10752,-9.921874 0.272214,-2.906144 0.258887,-3.403569 -0.109855,-4.101042 -0.230804,-0.436562 -0.420378,-0.954349 -0.421274,-1.150639 -7.94e-4,-0.196289 -0.174043,-0.73207 -0.384768,-1.190625 -1.105726,-2.406144 -1.449663,-4.131839 -1.699911,-8.529251 -0.140074,-2.461426 -0.372217,-4.780722 -0.515873,-5.153993 -0.143655,-0.373269 -0.345965,-1.35718 -0.449578,-2.186469 -0.103612,-0.829286 -0.412587,-1.792819 -0.68661,-2.141183 -0.274023,-0.348364 -0.498224,-0.708991 -0.498224,-0.801391 0,-0.0924 -0.446484,-0.792208 -0.992187,-1.555128 -1.109915,-1.551714 -1.386854,-1.977665 -2.246188,-3.454803 -0.862087,-1.48187 -1.025734,-1.737329 -2.053291,-3.205268 -1.027154,-1.467363 -1.240237,-1.800516 -1.929373,-3.016568 l -0.474165,-0.836711 1.003331,-1.173538 c 0.551833,-0.645446 1.145618,-1.177442 1.319524,-1.182215 0.173906,-0.0048 0.871682,0.675933 1.550612,1.512678 0.678931,0.836745 1.340316,1.561042 1.469745,1.609548 0.129429,0.04851 0.235326,0.252678 0.235326,0.453712 0,0.201035 0.238125,0.492958 0.529167,0.648719 0.291041,0.155761 0.529167,0.457606 0.529167,0.670767 0,0.213162 0.09984,0.387566 0.221874,0.387566 0.122031,0 1.04282,1.035915 2.046197,2.302033 2.657788,3.353748 2.906086,3.591756 3.537863,3.391238 0.604005,-0.191704 0.64121,-0.513325 0.260709,-2.253687 -0.143168,-0.654844 -0.497469,-2.440782 -0.787332,-3.96875 -0.289862,-1.527969 -0.754044,-3.96875 -1.031517,-5.423959 -1.340877,-7.032306 -1.318163,-6.867723 -0.991068,-7.181013 0.173333,-0.166016 0.9743,-0.379762 1.779933,-0.474991 l 1.464781,-0.173145 0.414938,1.268742 c 0.51155,1.564149 1.347824,4.332008 2.102053,6.957282 0.313555,1.091407 0.777574,2.639219 1.031149,3.439584 0.566368,1.787628 1.638984,5.305083 1.754839,5.754687 0.09502,0.368767 1.31623,0.455779 1.530522,0.109052 0.07535,-0.121923 0.261919,-2.056689 0.414591,-4.29948 0.152673,-2.24279 0.397325,-4.911238 0.543671,-5.929884 0.146349,-1.018646 0.368718,-3.494228 0.494157,-5.501292 0.125439,-2.007064 0.285126,-3.706266 0.354865,-3.776003 0.06974,-0.06974 0.977514,0.07738 2.017284,0.326924 l 1.89049,0.453718 -0.0096,2.263951 c -0.0092,2.161846 -0.286766,7.657551 -0.67692,13.402033 -0.176089,2.592658 -0.164487,2.675848 0.393493,2.821763 0.623552,0.163062 0.746631,0.0217 2.055985,-2.361409 0.412832,-0.751381 1.613807,-2.86412 2.668834,-4.694976 1.055026,-1.830856 1.918228,-3.383693 1.918228,-3.450748 0,-0.123791 1.139653,-1.910319 1.527408,-2.394378 0.11657,-0.145521 0.361971,-0.621771 0.545333,-1.058333 0.183364,-0.436563 0.568375,-1.077868 0.85558,-1.425124 0.487138,-0.588987 0.55431,-0.602309 1.000584,-0.198437 0.263122,0.238114 0.610825,0.432936 0.772678,0.432936 0.534785,0 0.617402,0.502636 0.211612,1.287354 -0.220062,0.42555 -0.51517,1.232719 -0.655796,1.793708 -0.140626,0.560988 -0.567653,1.853417 -0.94895,2.872063 -1.150281,3.073032 -1.991579,5.502834 -2.250434,6.499622 -0.134739,0.518854 -0.427178,1.29276 -0.649862,1.719791 -0.222684,0.427031 -0.405614,0.93702 -0.406511,1.133309 -7.94e-4,0.196289 -0.170889,0.73207 -0.377764,1.190625 -0.584071,1.294654 -1.258959,3.899955 -1.110486,4.286869 0.07353,0.191619 0.265256,1.338521 0.426056,2.548673 0.456002,3.431783 0.07673,3.126319 3.881705,3.126319 3.559024,0 3.504557,0.01593 6.87606,-2.012082 3.155165,-1.897888 3.301982,-1.957197 4.422122,-1.78639 1.270161,0.193683 1.828324,0.452041 3.01244,1.394373 0.81471,0.648353 1.138007,1.345766 0.623856,1.345766 -0.723506,0 -7.666429,4.40953 -9.288952,5.89952 -0.218282,0.200451 -0.575469,0.443418 -0.79375,0.539927 -0.218282,0.09651 -1.11125,0.712365 -1.984375,1.368571 -0.873125,0.656204 -1.885157,1.399945 -2.248959,1.652757 -1.985893,1.380032 -6.299276,4.641114 -6.813021,5.150905 -0.327421,0.324903 -0.596825,0.712298 -0.598672,0.86088 -0.0019,0.148583 -0.491596,1.222648 -1.088329,2.386815 -1.075966,2.099109 -1.082601,2.129835 -0.799989,3.704166 0.156736,0.873125 0.414554,3.730625 0.572931,6.350003 0.158374,2.61937 0.395576,5.38108 0.527116,6.13712 0.131538,0.75604 0.321408,2.75034 0.421934,4.43177 l 0.182772,3.05715 H 53.89015 49.466724 l 0.177826,-8.53281 0.177827,-8.532816 1.014597,-0.965716 c 0.55803,-0.531143 1.380443,-1.662237 1.827581,-2.513542 0.44714,-0.851304 0.931119,-1.756185 1.075507,-2.010846 0.144386,-0.254662 0.375536,-0.67138 0.513662,-0.926042 2.149994,-3.963897 4.151837,-7.146086 4.362757,-6.935166 0.641922,0.641922 2.665555,-0.0204 3.439835,-1.125839 0.227113,-0.324252 0.412935,-1.085146 0.412935,-1.690875 0,-0.878589 0.131892,-1.187741 0.65215,-1.528628 0.358683,-0.235018 0.792126,-0.427304 0.963208,-0.427304 0.17108,0 0.800349,-0.223851 1.398371,-0.497446 0.598021,-0.273595 1.742156,-0.762508 2.542521,-1.086475 3.363748,-1.361548 5.113856,-2.28918 6.246421,-3.310871 0.161311,-0.145521 0.901816,-0.621771 1.645563,-1.058333 1.182902,-0.694336 1.822688,-1.35373 1.564238,-1.612181 -0.138637,-0.138639 -4.04616,2.344497 -4.429139,2.814609 -0.18025,0.221258 -2.565905,1.47144 -3.704166,1.941137 -0.509323,0.210166 -1.699948,0.700624 -2.645834,1.089903 -0.945885,0.389281 -2.228993,0.935453 -2.851348,1.21372 -1.448337,0.647573 -2.023139,0.638321 -2.474193,-0.03983 -0.454451,-0.68326 -2.212922,-0.936919 -3.141125,-0.453107 -0.946865,0.493538 -1.642565,1.980443 -1.444842,3.088031 0.08822,0.494197 0.0605,0.970447 -0.0616,1.058334 -0.1221,0.08789 -1.155681,2.035032 -2.296845,4.326985 -1.91162,3.839355 -2.546712,4.782867 -2.546712,3.783459 0,-0.21105 -0.195961,-0.493392 -0.435467,-0.627427 -0.402241,-0.225105 -0.403305,-0.372478 -0.01394,-1.931376 0.447757,-1.792725 0.715074,-2.873259 1.497544,-6.053302 0.70489,-2.86475 1.21493,-4.576442 1.550496,-5.203452 0.161552,-0.301858 0.41031,-1.010743 0.552799,-1.575295 0.142489,-0.564554 0.629301,-2.038493 1.081802,-3.27542 0.452503,-1.236927 0.922134,-2.606145 1.043625,-3.042708 0.397806,-1.429475 0.90419,-2.565548 3.960778,-8.886059 0.885653,-1.831395 1.610283,-3.468504 1.610283,-3.638021 0,-0.169516 0.119063,-0.308212 0.264584,-0.308212 0.14552,0 0.264583,-0.151096 0.264583,-0.33577 0,-0.184673 0.522213,-1.405064 1.160473,-2.711979 1.313122,-2.688769 1.628291,-3.566834 1.280271,-3.566834 -0.261149,0 -0.327427,0.125276 -2.65965,5.027083 -0.865462,1.819011 -2.122762,4.446542 -2.793997,5.838958 -0.671237,1.392417 -1.22043,2.672339 -1.22043,2.844271 0,0.171933 -0.119063,0.312605 -0.264584,0.312605 -0.145521,0 -0.264583,0.153419 -0.264583,0.340931 0,0.187512 -0.249687,0.81259 -0.554858,1.389062 -0.305173,0.576472 -0.655968,1.405319 -0.779547,1.841882 -0.123579,0.436562 -0.771292,2.341562 -1.439362,4.233333 -2.142112,6.065803 -3.840816,11.511658 -3.840816,12.313216 0,0.247576 -0.238125,1.195536 -0.529167,2.106576 -0.291042,0.911039 -0.529167,1.991085 -0.529167,2.400101 0,0.851064 -0.285146,1.116513 -0.932516,0.868096 -0.410043,-0.157348 -0.435046,-0.572837 -0.274727,-4.564923 0.39261,-9.776246 0.917686,-14.48331 1.729512,-15.504316 0.115708,-0.145521 0.297995,-0.681302 0.405088,-1.190625 0.10709,-0.509323 0.379158,-1.283229 0.604599,-1.719792 0.702591,-1.360563 2.383592,-22.093652 1.741271,-21.47645 -0.246933,0.237275 -0.388816,1.532593 -0.859901,7.850409 -0.697717,9.357249 -0.86386,11.048103 -1.221902,12.435416 -0.418055,1.619854 -1.29617,4.210193 -1.838695,5.423959 -0.19735,0.441523 -0.432554,2.320067 -0.530032,4.233333 -0.09639,1.891771 -0.283146,4.392083 -0.415028,5.55625 -0.131882,1.164167 -0.315799,3.634714 -0.408702,5.490104 -0.15168,3.029183 -0.218257,3.373438 -0.652404,3.373438 -0.392017,0 -0.516422,-0.287817 -0.657582,-1.521355 -0.09575,-0.836744 -0.289518,-1.938072 -0.430589,-2.447395 -0.14107,-0.509323 -0.368442,-5.56948 -0.505272,-11.244792 -0.136826,-5.675313 -0.367752,-10.616406 -0.513164,-10.980208 -0.145415,-0.363802 -0.440307,-1.494896 -0.655315,-2.513542 -0.871813,-4.130383 -1.340993,-6.099957 -1.517663,-6.370994 -0.102381,-0.157068 -0.31627,-1.10012 -0.475311,-2.095673 -0.159041,-0.995552 -0.369761,-1.938605 -0.46827,-2.095672 -0.09851,-0.157068 -0.309295,-0.933153 -0.468419,-1.724633 -0.15912,-0.791481 -0.44592,-1.491259 -0.63733,-1.555062 -0.390592,-0.130197 -0.359,0.105626 0.471995,3.523284 0.283064,1.164167 0.775473,3.188229 1.094243,4.497917 0.31877,1.309687 0.802253,3.33375 1.074409,4.497916 0.272156,1.164167 0.624091,2.533386 0.782079,3.042709 0.157988,0.509323 0.395457,4.557448 0.527709,8.995833 0.235635,7.907999 0.616238,14.098429 1.037243,16.870624 0.195329,1.286182 0.159216,1.444758 -0.473014,2.076988 l -0.684487,0.68449 -0.184661,-0.88877 c -0.101564,-0.488823 -0.370338,-1.244875 -0.597282,-1.680115 -0.226944,-0.435237 -0.413356,-1.003525 -0.414253,-1.262861 -7.94e-4,-0.259334 -0.177776,-0.893096 -0.393065,-1.408359 -0.215291,-0.51526 -0.517102,-2.267609 -0.670692,-3.894106 -0.153591,-1.626496 -0.392168,-3.519365 -0.53017,-4.206377 -0.138004,-0.687012 -0.375078,-2.651543 -0.526833,-4.365625 -0.248986,-2.812346 -0.856551,-5.088975 -1.360464,-5.097854 -0.149487,-0.0026 -0.536032,-0.549786 -1.679781,-2.37772 -0.14552,-0.23257 -0.418265,-0.597081 -0.606098,-0.810023 -0.318129,-0.360655 -4.462008,-6.101898 -5.347027,-7.408174 -0.849073,-1.253221 -1.2851,-1.702538 -1.471738,-1.516598 -0.160376,0.159777 0.647807,1.577541 1.54867,2.716772 0.115072,0.145521 1.26963,1.752864 2.565682,3.571875 1.296053,1.81901 2.541356,3.495873 2.76734,3.726362 0.225984,0.230489 0.41088,0.50536 0.41088,0.610828 0,0.186018 1.55077,2.275581 1.886529,2.541976 0.09171,0.07276 0.251241,1.025261 0.354521,2.116667 0.103282,1.091406 0.291936,2.469383 0.419235,3.062171 0.127296,0.592786 0.359523,2.438255 0.516056,4.101042 0.421336,4.475604 0.95095,7.166721 2.024039,10.284674 0.651086,1.891792 0.944962,3.191542 0.910955,4.028948 -0.06574,1.618901 0.490707,2.89111 1.651931,3.776821 l 0.94025,0.717164 -0.12587,5.072404 c -0.06923,2.78982 -0.194427,6.76904 -0.278223,8.84271 l -0.152352,3.77032 h -4.978292 -4.978294 z m 9.803489,-18.051101 c -0.967171,-0.637519 -1.154686,-1.085488 -1.178454,-2.815299 -0.02692,-1.958785 0.650182,-2.747661 2.358337,-2.747661 1.114875,0 1.372008,0.109117 1.991199,0.844981 1.123714,1.335461 1.282113,2.007555 0.781857,3.317455 -0.694748,1.819174 -2.4008,2.423628 -3.952939,1.400524 z M 58.391696,83.371178 c -1.26869,-1.507755 -0.683326,-3.683866 0.990947,-3.683866 1.422328,0 2.028244,0.623033 2.028244,2.085549 0,2.243286 -1.713296,3.150283 -3.019191,1.598317 z"
       id="path304" /></g></svg>
